# xmcd
#
# Track frame offsets: 
#        150
#        14975
#        35967
#        56152
#        74817
#        102945
#        123037
#        141800
#        164132
#        180707
#        199855
#        217915
#        233247
#        252092
#        271595
#        292050
#
# Disc length: 4117 seconds
#
# Revision: 2
# Processed by: cddbd v1.5.2PL0 Copyright (c) Steve Scherf et al.
# Submitted via: ExactAudioCopy v1.0b3
#
DISCID=02101310
DTITLE=野口五郎 - 筒美京平 ウルトラ・ベスト・トラックス 野口五郎 Disc 2 TACT-1008-9
DYEAR=1900
DGENRE=JPop
TTITLE0=グッド・ラック
TTITLE1=真夏の夜の夢
TTITLE2=女になって出直せよ
TTITLE3=消えたハリケーン
TTITLE4=二死満塁の青春
TTITLE5=シスコ・ドリーム
TTITLE6=送春曲
TTITLE7=夕暮れギター
TTITLE8=さすらい気分
TTITLE9=やさしく教えて (Live Version)
TTITLE10=スマイル
TTITLE11=少し抱かれて
TTITLE12=愛をとめたまま
TTITLE13=一人が好きですか
TTITLE14=過ぎ去れば夢は優しい
TTITLE15=19:00の街
EXTD=
EXTT0=
EXTT1=
EXTT2=
EXTT3=
EXTT4=
EXTT5=
EXTT6=
EXTT7=
EXTT8=
EXTT9=
EXTT10=
EXTT11=
EXTT12=
EXTT13=
EXTT14=
EXTT15=
PLAYORDER=
